<svg xmlns="http://www.w3.org/2000/svg" width="654" height="450" viewBox="0 0 654 450">
  <defs>
    <style>
      .cls-1 {
        fill-rule: evenodd;
      }
    </style>
  </defs>
  <path id="Preenchimento_de_Cor_2" data-name="Preenchimento de Cor 2" class="cls-1" d="M0,0H5C5.042-.339,30.436,37.836,36,46,52.724,70.539,71.886,98.195,72,98c0.233-.4,14.04,23.476,14,23H57c0.787,0.114-35.358-57.264-35-57H21V445H0V0ZM383,0h26V283h5c9.331-16.252,36.456-52.679,48-69,37.919-53.607,78.461-107.547,117-160,10.227-13.919,30.166-35.949,39-54,10,0.333,20-.333,30,0-32.126,43.306-64.473,89.82-98,134-25.9,34.131-48.668,63.6-74,98-3.839,5.213-11.026,15.022-15,20-13.067,16.367-24.36,28.93-39,49-9.067,12.431-17.906,22.572-18,23H383V0ZM257,7h26V450h-5c-0.192-.091-12.883-14.97-13-15-0.261-.067-47.705-73.052-48.425-73.735-0.532-.5-15.217-20.273-18.575-32.265h23c3.21,8.779,32.3,55.328,39,59V15C255.358,16.062,256.942,12.524,257,7ZM654,450c0.494,1.161-18.334,0-28,0-1.416-.984-23.895-27.779-24-28-0.38-.8-76.162-99.1-76.267-99.282C525.465,322.246,479.108,258.754,478,260c4.655-2.3,14.747-11.551,19-14,2.118-2.165,12.6,15.646,13,15,8.723,10.84,11.284,14.367,16,21,7.58,10.662,6.262,9.415,14,19,15.921,19.72,29.554,37.694,44,57,10.411,13.913,25.406,34.14,36,48C629.838,418.871,654.48,451.189,654,450Z"/>
</svg>
